<svg width="46" height="46" viewBox="0 0 46 46" fill="none" xmlns="http://www.w3.org/2000/svg">
<g clip-path="url(#clip0_313_3)">
<path d="M18.4667 44.0578C14.806 44.0578 11.8384 41.0902 11.8384 37.4295C11.8384 33.7687 14.806 30.8011 18.4667 30.8011H25.0951V37.4295C25.0951 41.0902 22.1275 44.0578 18.4667 44.0578Z" stroke="white" stroke-width="3.78764" stroke-miterlimit="10" stroke-linecap="round" stroke-linejoin="round"/>
<path d="M31.7236 17.5444H25.0952V4.28766H31.7236C35.3843 4.28766 38.3519 7.25527 38.3519 10.916C38.3519 14.5768 35.3843 17.5444 31.7236 17.5444Z" stroke="white" stroke-width="3.78764" stroke-miterlimit="10" stroke-linecap="round" stroke-linejoin="round"/>
<path d="M18.4667 17.5444H25.0951V4.28766H18.4667C14.806 4.28766 11.8384 7.25527 11.8384 10.916C11.8384 14.5768 14.806 17.5444 18.4667 17.5444Z" stroke="white" stroke-width="3.78764" stroke-miterlimit="10" stroke-linecap="round" stroke-linejoin="round"/>
<path d="M18.4667 30.8011H25.0951V17.5444H18.4667C14.806 17.5444 11.8384 20.512 11.8384 24.1727C11.8384 27.8335 14.806 30.8011 18.4667 30.8011Z" stroke="white" stroke-width="3.78764" stroke-miterlimit="10" stroke-linecap="round" stroke-linejoin="round"/>
<path d="M34.1626 25.1196C34.1626 25.9438 33.4944 26.612 32.6702 26.612C31.846 26.612 31.1779 25.9438 31.1779 25.1196C31.1779 24.2954 31.846 23.6273 32.6702 23.6273C33.4944 23.6273 34.1626 24.2954 34.1626 25.1196Z" stroke="white" stroke-width="8.37819"/>
<path opacity="0.3" d="M18.4667 43.1109C15.329 43.1109 12.7853 40.5672 12.7853 37.4295C12.7853 34.2917 15.329 31.748 18.4667 31.748H24.1482V37.4295C24.1482 40.5672 21.6045 43.1109 18.4667 43.1109Z" stroke="white" stroke-width="1.89382"/>
<path opacity="0.3" d="M31.7236 16.5975H26.0421V5.23457H31.7236C34.8614 5.23457 37.405 7.77824 37.405 10.916C37.405 14.0538 34.8614 16.5975 31.7236 16.5975Z" stroke="white" stroke-width="1.89382"/>
<path opacity="0.3" d="M24.1482 5.23457V16.5975H18.4667C15.329 16.5975 12.7853 14.0538 12.7853 10.916C12.7853 7.77824 15.329 5.23457 18.4667 5.23457H24.1482Z" stroke="white" stroke-width="1.89382"/>
<path opacity="0.3" d="M24.1482 18.4913V29.8542H18.4667C15.329 29.8542 12.7853 27.3105 12.7853 24.1727C12.7853 21.035 15.329 18.4913 18.4667 18.4913H24.1482Z" stroke="white" stroke-width="1.89382"/>
</g>
<defs>
<clipPath id="clip0_313_3">
<rect width="45.4517" height="45.4517" fill="white" transform="translate(0.475586 0.5)"/>
</clipPath>
</defs>
</svg>
