<svg width="110" height="109" viewBox="0 0 110 109" fill="none" xmlns="http://www.w3.org/2000/svg">
<g clip-path="url(#clip0_313_3)">
<path d="M43.8996 104.229C35.1608 104.229 28.0767 97.145 28.0767 88.4062C28.0767 79.6675 35.1608 72.5833 43.8996 72.5833H59.7225V88.4062C59.7225 97.145 52.6383 104.229 43.8996 104.229Z" stroke="white" stroke-width="9.04167" stroke-miterlimit="10" stroke-linecap="round" stroke-linejoin="round"/>
<path d="M75.5456 40.9375H59.7227V9.29169H75.5456C84.2843 9.29169 91.3685 16.3758 91.3685 25.1146C91.3685 33.8534 84.2843 40.9375 75.5456 40.9375Z" stroke="white" stroke-width="9.04167" stroke-miterlimit="10" stroke-linecap="round" stroke-linejoin="round"/>
<path d="M43.8996 40.9375H59.7225V9.29169H43.8996C35.1608 9.29169 28.0767 16.3758 28.0767 25.1146C28.0767 33.8534 35.1608 40.9375 43.8996 40.9375Z" stroke="white" stroke-width="9.04167" stroke-miterlimit="10" stroke-linecap="round" stroke-linejoin="round"/>
<path d="M43.8996 72.5833H59.7225V40.9375H43.8996C35.1608 40.9375 28.0767 48.0216 28.0767 56.7604C28.0767 65.4992 35.1608 72.5833 43.8996 72.5833Z" stroke="white" stroke-width="9.04167" stroke-miterlimit="10" stroke-linecap="round" stroke-linejoin="round"/>
<path d="M81.3682 59.0208C81.3682 60.9883 79.7732 62.5833 77.8057 62.5833C75.8381 62.5833 74.2432 60.9883 74.2432 59.0208C74.2432 57.0533 75.8381 55.4583 77.8057 55.4583C79.7732 55.4583 81.3682 57.0533 81.3682 59.0208Z" stroke="white" stroke-width="20"/>
<path opacity="0.3" d="M43.8996 101.969C36.4092 101.969 30.3371 95.8966 30.3371 88.4062C30.3371 80.9159 36.4092 74.8437 43.8996 74.8437H57.4621V88.4062C57.4621 95.8966 51.39 101.969 43.8996 101.969Z" stroke="white" stroke-width="4.52083"/>
<path opacity="0.3" d="M75.5456 38.6771H61.9831V11.5521H75.5456C83.036 11.5521 89.1081 17.6242 89.1081 25.1146C89.1081 32.605 83.036 38.6771 75.5456 38.6771Z" stroke="white" stroke-width="4.52083"/>
<path opacity="0.3" d="M57.4621 11.5521V38.6771H43.8996C36.4092 38.6771 30.3371 32.605 30.3371 25.1146C30.3371 17.6242 36.4092 11.5521 43.8996 11.5521H57.4621Z" stroke="white" stroke-width="4.52083"/>
<path opacity="0.3" d="M57.4621 43.1979V70.3229H43.8996C36.4092 70.3229 30.3371 64.2508 30.3371 56.7604C30.3371 49.27 36.4092 43.1979 43.8996 43.1979H57.4621Z" stroke="white" stroke-width="4.52083"/>
</g>
<defs>
<clipPath id="clip0_313_3">
<rect width="108.5" height="108.5" fill="white" transform="translate(0.95166 0.25)"/>
</clipPath>
</defs>
</svg>
