<svg width="71" height="71" viewBox="0 0 71 71" fill="none" xmlns="http://www.w3.org/2000/svg">
<path fill-rule="evenodd" clip-rule="evenodd" d="M65.6941 4.90388H4.44129V66.1567H65.6941V4.90388ZM2.83984 3.30243V67.7581H67.2955V3.30243H2.83984Z" fill="white"/>
<path d="M0.0371094 0.5H6.84292V7.30581H0.0371094V0.5Z" fill="black"/>
<path fill-rule="evenodd" clip-rule="evenodd" d="M5.24163 2.10139H1.6385V5.70452H5.24163V2.10139ZM0.0371094 0.5V7.30581H6.84292V0.5H0.0371094Z" fill="white"/>
<path d="M0.0371094 63.7548H6.84292V70.5606H0.0371094V63.7548Z" fill="black"/>
<path fill-rule="evenodd" clip-rule="evenodd" d="M5.24163 65.3561H1.6385V68.9591H5.24163V65.3561ZM0.0371094 63.7548V70.5606H6.84292V63.7548H0.0371094Z" fill="white"/>
<path d="M63.292 0.5H70.0978V7.30581H63.292V0.5Z" fill="black"/>
<path fill-rule="evenodd" clip-rule="evenodd" d="M68.4964 2.10139H64.8933V5.70452H68.4964V2.10139ZM63.292 0.5V7.30581H70.0978V0.5H63.292Z" fill="white"/>
<path d="M63.292 63.7548H70.0978V70.5606H63.292V63.7548Z" fill="black"/>
<path fill-rule="evenodd" clip-rule="evenodd" d="M68.4964 65.3561H64.8933V68.9591H68.4964V65.3561ZM63.292 63.7548V70.5606H70.0978V63.7548H63.292Z" fill="white"/>
<path fill-rule="evenodd" clip-rule="evenodd" d="M26.466 45.9269C26.2166 45.6776 26.1185 45.3141 26.2087 44.9731L29.4718 32.6276C29.4765 32.6099 29.4817 32.5923 29.4874 32.5749C29.7802 31.6728 30.4229 30.9258 31.2712 30.5018L31.2877 30.4937L36.0478 28.223C36.2554 28.1204 36.4729 28.0521 36.6934 28.0168C36.8001 27.6064 37.0212 27.224 37.3242 26.9209L37.9636 26.2815C38.8484 25.3967 40.2828 25.3967 41.1674 26.2815L46.2841 31.3982C47.1689 32.2828 47.1689 33.7173 46.2841 34.602L45.6447 35.2415C45.3382 35.548 44.9524 35.7677 44.5398 35.8717C44.5002 36.1143 44.4205 36.3532 44.2994 36.5787L41.8919 41.1975L41.8841 41.2123C41.4512 42.0096 40.7289 42.6102 39.8661 42.8904C39.8487 42.8961 39.8311 42.9011 39.8135 42.9059L27.42 46.1842C27.079 46.2745 26.7155 46.1764 26.466 45.9269ZM42.5044 35.3055C42.5933 35.3944 42.6132 35.5312 42.5532 35.6416L42.5454 35.6563L40.1389 40.2733C39.9518 40.6139 39.6443 40.8723 39.2769 40.9979L30.4656 43.3287L33.9523 39.8422C35.2905 40.5746 36.8425 40.2081 37.7531 39.2975C39.0393 38.0113 39.0393 35.9261 37.7531 34.6401C36.4671 33.3539 34.3818 33.3539 33.0958 34.6401C32.1777 35.5581 31.8798 37.1361 32.559 38.4329L29.0632 41.9286L31.3798 33.164C31.5112 32.7797 31.7876 32.4615 32.1503 32.2778L36.9081 30.0082L36.9246 30.0002C37.0339 29.9456 37.1659 29.967 37.2522 30.0533L42.5044 35.3055ZM38.6535 28.6521L43.9058 33.9043C43.9341 33.9326 43.9561 33.9438 43.9697 33.949C43.9841 33.9545 44.0012 33.9579 44.0235 33.9567C44.0684 33.9544 44.1527 33.931 44.2434 33.8402L44.8829 33.2007C44.9937 33.0899 44.9937 32.9102 44.8829 32.7994L39.7662 27.6827C39.6555 27.572 39.4757 27.572 39.365 27.6827L38.7254 28.3223C38.6303 28.4173 38.607 28.5031 38.6047 28.5449C38.6035 28.5652 38.6064 28.5799 38.6108 28.5918C38.6151 28.603 38.6252 28.6238 38.6535 28.6521ZM34.5554 37.8378C35.1569 38.4393 35.9343 38.3139 36.3519 37.8963C36.8641 37.384 36.8641 36.5535 36.3519 36.0413C35.8396 35.5292 35.0093 35.5292 34.497 36.0413C34.1002 36.4381 34.0034 37.2857 34.5554 37.8378Z" fill="white"/>
</svg>
