<svg width="104" height="105" viewBox="0 0 104 105" fill="none" xmlns="http://www.w3.org/2000/svg">
<path fill-rule="evenodd" clip-rule="evenodd" d="M97.3382 7.00959H6.79688V97.5509H97.3382V7.00959ZM4.42969 4.6424V99.9181H99.7054V4.6424H4.42969Z" fill="white"/>
<path d="M0.287109 0.5H10.3472V10.5601H0.287109V0.5Z" fill="black"/>
<path fill-rule="evenodd" clip-rule="evenodd" d="M7.98021 2.8671H2.65421V8.1931H7.98021V2.8671ZM0.287109 0.5V10.5601H10.3472V0.5H0.287109Z" fill="white"/>
<path d="M0.287109 94.0005H10.3472V104.061H0.287109V94.0005Z" fill="black"/>
<path fill-rule="evenodd" clip-rule="evenodd" d="M7.98021 96.3675H2.65421V101.693H7.98021V96.3675ZM0.287109 94.0005V104.061H10.3472V94.0005H0.287109Z" fill="white"/>
<path d="M93.7876 0.5H103.848V10.5601H93.7876V0.5Z" fill="black"/>
<path fill-rule="evenodd" clip-rule="evenodd" d="M101.48 2.8671H96.1546V8.1931H101.48V2.8671ZM93.7876 0.5V10.5601H103.848V0.5H93.7876Z" fill="white"/>
<path d="M93.7876 94.0005H103.848V104.061H93.7876V94.0005Z" fill="black"/>
<path fill-rule="evenodd" clip-rule="evenodd" d="M101.48 96.3675H96.1546V101.693H101.48V96.3675ZM93.7876 94.0005V104.061H103.848V94.0005H93.7876Z" fill="white"/>
<path fill-rule="evenodd" clip-rule="evenodd" d="M39.3534 67.6481C38.9846 67.2796 38.8396 66.7423 38.973 66.2383L43.7963 47.9897C43.8033 47.9635 43.811 47.9375 43.8194 47.9117C44.2521 46.5783 45.2023 45.4742 46.4561 44.8474L46.4805 44.8354L53.5167 41.479C53.8236 41.3272 54.1451 41.2264 54.4709 41.1742C54.6288 40.5675 54.9555 40.0022 55.4034 39.5543L56.3486 38.6091C57.6564 37.3013 59.7767 37.3013 61.0843 38.6091L68.6477 46.1724C69.9555 47.4801 69.9555 49.6003 68.6477 50.9082L67.7025 51.8533C67.2494 52.3065 66.6791 52.6312 66.0693 52.7849C66.0107 53.1435 65.8929 53.4967 65.7138 53.83L62.1552 60.6573L62.1437 60.6793C61.5038 61.8578 60.4361 62.7455 59.1608 63.1597C59.135 63.1681 59.109 63.1756 59.083 63.1826L40.7634 68.0284C40.2594 68.1619 39.7222 68.0169 39.3534 67.6481ZM63.0606 51.9481C63.192 52.0794 63.2214 52.2816 63.1327 52.4448L63.1212 52.4666L59.564 59.2912C59.2874 59.7947 58.8329 60.1766 58.2898 60.3623L45.2654 63.8076L50.4192 58.654C52.3973 59.7366 54.6914 59.1948 56.0375 57.8488C57.9386 55.9476 57.9386 52.8654 56.0375 50.9645C54.1365 49.0633 51.0541 49.0633 49.1532 50.9645C47.796 52.3214 47.3558 54.654 48.3597 56.5708L43.1923 61.7379L46.6166 48.7825C46.8109 48.2145 47.2195 47.7442 47.7556 47.4726L54.7884 44.1177L54.8128 44.106C54.9743 44.0252 55.1694 44.0569 55.2969 44.1844L63.0606 51.9481ZM57.3684 42.1132L65.132 49.8769C65.1739 49.9187 65.2064 49.9352 65.2265 49.9429C65.2478 49.951 65.2731 49.956 65.3061 49.9542C65.3724 49.9508 65.497 49.9162 65.6311 49.7821L66.5764 48.8367C66.7402 48.673 66.7402 48.4073 66.5764 48.2436L59.0131 40.6803C58.8494 40.5166 58.5837 40.5166 58.42 40.6803L57.4747 41.6257C57.334 41.7661 57.2996 41.893 57.2963 41.9547C57.2944 41.9848 57.2987 42.0065 57.3053 42.0241C57.3116 42.0406 57.3265 42.0714 57.3684 42.1132ZM51.3108 55.6912C52.1999 56.5803 53.349 56.3948 53.9663 55.7776C54.7233 55.0203 54.7233 53.7927 53.9663 53.0357C53.209 52.2787 51.9817 52.2787 51.2244 53.0357C50.6379 53.6222 50.4947 54.8751 51.3108 55.6912Z" fill="white"/>
</svg>
