 <svg width="20" height="20" viewBox="0 0 20 20" fill="none" xmlns="http://www.w3.org/2000/svg">
<path d="M9.81934 6.87443C9.43261 6.87443 9.04966 6.95061 8.69237 7.0986C8.33508 7.2466 8.01044 7.46352 7.73698 7.73698C7.46352 8.01044 7.2466 8.33508 7.0986 8.69237C6.95061 9.04966 6.87443 9.43261 6.87443 9.81934C6.87443 10.2061 6.95061 10.589 7.0986 10.9463C7.2466 11.3036 7.46352 11.6282 7.73698 11.9017C8.01044 12.1752 8.33508 12.3921 8.69237 12.5401C9.04966 12.6881 9.43261 12.7642 9.81934 12.7642C10.6004 12.7642 11.3494 12.454 11.9017 11.9017C12.454 11.3494 12.7642 10.6004 12.7642 9.81934C12.7642 9.0383 12.454 8.28925 11.9017 7.73698C11.3494 7.1847 10.6004 6.87443 9.81934 6.87443ZM9.81934 4.91031C10.4708 4.89977 11.1178 5.01897 11.7227 5.26097C12.3276 5.50298 12.8783 5.86294 13.3427 6.31989C13.8071 6.77684 14.1759 7.32164 14.4277 7.92255C14.6794 8.52346 14.8091 9.16846 14.8091 9.81998C14.8091 10.4715 14.6794 11.1165 14.4277 11.7174C14.1759 12.3183 13.8071 12.8631 13.3427 13.3201C12.8783 13.777 12.3276 14.137 11.7227 14.379C11.1178 14.621 10.4708 14.7402 9.81934 14.7296C8.51704 14.7296 7.26808 14.2123 6.34722 13.2914C5.42636 12.3706 4.90903 11.1216 4.90903 9.81934C4.90903 8.51704 5.42636 7.26808 6.34722 6.34722C7.26808 5.42636 8.51704 4.91031 9.81934 4.91031ZM16.2015 4.66479C16.2068 4.82926 16.179 4.99312 16.1197 5.14663C16.0605 5.30013 15.9709 5.44016 15.8565 5.55838C15.742 5.67661 15.605 5.77061 15.4535 5.83481C15.3019 5.89901 15.1391 5.93209 14.9745 5.93209C14.81 5.93209 14.6471 5.89901 14.4956 5.83481C14.3441 5.77061 14.207 5.67661 14.0926 5.55838C13.9781 5.44016 13.8886 5.30013 13.8293 5.14663C13.7701 4.99312 13.7423 4.82926 13.7476 4.66479C13.7476 4.33922 13.8769 4.02698 14.1071 3.79677C14.3373 3.56655 14.6496 3.43722 14.9752 3.43722C15.3007 3.43722 15.613 3.56655 15.8432 3.79677C16.0734 4.02698 16.2015 4.33922 16.2015 4.66479ZM9.81934 1.96541C7.38989 1.96541 6.99398 1.97055 5.86409 2.02068C5.09284 2.05796 4.57739 2.16079 4.09792 2.34718C3.67245 2.51171 3.36523 2.70967 3.03745 3.03745C2.72895 3.33438 2.49372 3.69687 2.34589 4.09792C2.15951 4.57867 2.05667 5.09413 2.02068 5.86409C1.96927 6.9477 1.96412 7.3269 1.96412 9.81934C1.96412 12.2488 1.97055 12.646 2.02068 13.7759C2.05796 14.5445 2.16079 15.0613 2.34589 15.5407C2.513 15.9675 2.70967 16.2747 3.03617 16.6012C3.36652 16.9303 3.67373 17.1282 4.09664 17.2915C4.58124 17.4792 5.09798 17.5833 5.86409 17.618C6.9477 17.6694 7.3269 17.6745 9.81934 17.6745C12.2488 17.6745 12.646 17.6681 13.7759 17.618C14.5433 17.582 15.0613 17.4792 15.5407 17.2928C15.9649 17.127 16.2747 16.9303 16.6012 16.6038C16.9316 16.2722 17.1282 15.9649 17.2915 15.5433C17.4792 15.0587 17.5833 14.5407 17.618 13.7759C17.6694 12.6923 17.6745 12.3131 17.6745 9.81934C17.6745 7.38989 17.6681 6.99398 17.618 5.86409C17.582 5.09541 17.4792 4.57739 17.2915 4.09792C17.1435 3.69729 16.9077 3.33492 16.6012 3.03745C16.3044 2.72985 15.9419 2.49343 15.5407 2.34589C15.06 2.15951 14.5433 2.05667 13.7759 2.02068C12.6923 1.96927 12.3131 1.96541 9.81934 1.96541ZM9.81934 0C12.4879 0 12.8208 0.0102834 13.8671 0.0591294C14.9135 0.107975 15.6243 0.272509 16.2516 0.515454C16.8994 0.764826 17.4457 1.10289 17.9908 1.64791C18.4908 2.13894 18.8777 2.73281 19.1232 3.38837C19.3662 4.01309 19.5307 4.72521 19.5795 5.77154C19.6258 6.81916 19.6387 7.15209 19.6387 9.82062C19.6387 12.4879 19.6284 12.8208 19.5795 13.8671C19.5307 14.9135 19.3662 15.6243 19.1232 16.2516C18.8777 16.9071 18.4908 17.501 17.992 17.9908C17.5009 18.49 16.907 18.8764 16.2516 19.1232C15.6256 19.3662 14.9122 19.5307 13.8671 19.5795C12.8208 19.6258 12.4879 19.6387 9.81934 19.6387C7.15209 19.6387 6.81916 19.6284 5.77154 19.5795C4.72649 19.5307 4.01437 19.3662 3.38837 19.1232C2.73269 18.8776 2.13866 18.4915 1.64791 17.992C1.1488 17.501 0.762778 16.9071 0.516739 16.2516C0.272509 15.6256 0.107975 14.9122 0.0591294 13.8671C0.0128542 12.8208 0 12.4879 0 9.81934C0 7.15209 0.0102834 6.81916 0.0591294 5.77154C0.107975 4.72521 0.272509 4.01437 0.515454 3.38837C0.762255 2.73281 1.14788 2.13894 1.64791 1.64791C2.13877 1.14861 2.73277 0.762555 3.38837 0.516739C4.01437 0.272509 4.72521 0.107975 5.77154 0.0591294C6.81916 0.0128542 7.15209 0 9.82062 0H9.81934Z" fill="white"/>
</svg>
