<svg width="429" height="220" viewBox="0 0 429 220" fill="none" xmlns="http://www.w3.org/2000/svg">
<path d="M143.653 122.696V109.048H151.889V110.514H145.305V115.126H151.463V116.592H145.305V121.23H151.996V122.696H143.653ZM154.467 122.696V112.46H155.987V114.059H156.12C156.333 113.513 156.678 113.089 157.153 112.787C157.628 112.48 158.199 112.327 158.866 112.327C159.541 112.327 160.103 112.48 160.552 112.787C161.005 113.089 161.358 113.513 161.611 114.059H161.718C161.98 113.531 162.373 113.111 162.897 112.8C163.422 112.485 164.05 112.327 164.783 112.327C165.699 112.327 166.447 112.613 167.029 113.186C167.611 113.755 167.902 114.641 167.902 115.845V122.696H166.329V115.845C166.329 115.09 166.123 114.55 165.71 114.226C165.296 113.902 164.81 113.74 164.25 113.74C163.53 113.74 162.973 113.957 162.578 114.393C162.182 114.824 161.984 115.37 161.984 116.032V122.696H160.385V115.685C160.385 115.103 160.196 114.635 159.819 114.279C159.441 113.919 158.954 113.74 158.359 113.74C157.95 113.74 157.568 113.848 157.213 114.066C156.862 114.284 156.578 114.586 156.36 114.972C156.147 115.354 156.04 115.797 156.04 116.299V122.696H154.467ZM178.692 122.936C178.044 122.936 177.455 122.814 176.926 122.569C176.398 122.321 175.978 121.963 175.667 121.497C175.356 121.026 175.2 120.457 175.2 119.791C175.2 119.204 175.316 118.729 175.547 118.364C175.778 117.996 176.087 117.707 176.473 117.498C176.86 117.289 177.286 117.134 177.753 117.032C178.224 116.925 178.697 116.841 179.172 116.778C179.794 116.698 180.298 116.638 180.685 116.598C181.076 116.554 181.36 116.481 181.538 116.379C181.72 116.276 181.811 116.099 181.811 115.845V115.792C181.811 115.135 181.631 114.624 181.271 114.259C180.916 113.895 180.376 113.713 179.652 113.713C178.901 113.713 178.313 113.877 177.886 114.206C177.46 114.535 177.16 114.886 176.986 115.259L175.494 114.726C175.76 114.104 176.116 113.62 176.56 113.273C177.009 112.922 177.497 112.678 178.026 112.54C178.559 112.398 179.083 112.327 179.599 112.327C179.927 112.327 180.305 112.367 180.732 112.447C181.163 112.522 181.578 112.68 181.978 112.92C182.382 113.16 182.717 113.522 182.984 114.006C183.251 114.49 183.384 115.139 183.384 115.952V122.696H181.811V121.31H181.731C181.625 121.532 181.447 121.77 181.198 122.023C180.949 122.276 180.618 122.492 180.205 122.669C179.792 122.847 179.288 122.936 178.692 122.936ZM178.932 121.523C179.554 121.523 180.079 121.401 180.505 121.157C180.936 120.912 181.26 120.597 181.478 120.21C181.7 119.824 181.811 119.417 181.811 118.991V117.551C181.745 117.631 181.598 117.705 181.371 117.771C181.149 117.834 180.892 117.889 180.598 117.938C180.31 117.982 180.027 118.022 179.752 118.058C179.481 118.089 179.261 118.116 179.092 118.138C178.683 118.191 178.301 118.278 177.946 118.398C177.595 118.513 177.311 118.689 177.093 118.924C176.88 119.155 176.773 119.471 176.773 119.87C176.773 120.417 176.975 120.83 177.38 121.11C177.788 121.385 178.306 121.523 178.932 121.523ZM187.639 116.538V122.696H186.067V112.46H187.586V114.059H187.719C187.959 113.54 188.324 113.122 188.812 112.807C189.301 112.487 189.932 112.327 190.705 112.327C191.398 112.327 192.004 112.469 192.524 112.753C193.044 113.033 193.448 113.46 193.737 114.033C194.026 114.601 194.17 115.321 194.17 116.192V122.696H192.598V116.299C192.598 115.494 192.389 114.868 191.971 114.419C191.553 113.966 190.98 113.74 190.252 113.74C189.75 113.74 189.301 113.848 188.906 114.066C188.515 114.284 188.206 114.601 187.979 115.019C187.753 115.437 187.639 115.943 187.639 116.538ZM200.722 122.909C199.869 122.909 199.116 122.694 198.462 122.263C197.809 121.827 197.298 121.214 196.93 120.424C196.561 119.628 196.377 118.689 196.377 117.605C196.377 116.53 196.561 115.597 196.93 114.806C197.298 114.015 197.812 113.404 198.469 112.973C199.127 112.542 199.886 112.327 200.748 112.327C201.415 112.327 201.941 112.438 202.328 112.66C202.719 112.878 203.016 113.126 203.221 113.406C203.429 113.682 203.592 113.908 203.707 114.086H203.84V109.048H205.413V122.696H203.894V121.123H203.707C203.592 121.31 203.427 121.545 203.214 121.83C203.001 122.11 202.696 122.361 202.301 122.583C201.906 122.8 201.379 122.909 200.722 122.909ZM200.935 121.497C201.566 121.497 202.099 121.332 202.534 121.003C202.97 120.67 203.301 120.21 203.527 119.624C203.754 119.033 203.867 118.351 203.867 117.578C203.867 116.814 203.756 116.145 203.534 115.572C203.312 114.995 202.983 114.546 202.548 114.226C202.112 113.902 201.575 113.74 200.935 113.74C200.268 113.74 199.713 113.911 199.269 114.253C198.829 114.59 198.498 115.05 198.276 115.632C198.058 116.21 197.949 116.858 197.949 117.578C197.949 118.307 198.06 118.969 198.283 119.564C198.509 120.155 198.842 120.626 199.282 120.977C199.726 121.323 200.277 121.497 200.935 121.497ZM211.336 122.936C210.688 122.936 210.099 122.814 209.57 122.569C209.042 122.321 208.622 121.963 208.311 121.497C208 121.026 207.844 120.457 207.844 119.791C207.844 119.204 207.96 118.729 208.191 118.364C208.422 117.996 208.731 117.707 209.117 117.498C209.504 117.289 209.93 117.134 210.397 117.032C210.868 116.925 211.341 116.841 211.816 116.778C212.438 116.698 212.942 116.638 213.329 116.598C213.72 116.554 214.004 116.481 214.182 116.379C214.364 116.276 214.455 116.099 214.455 115.845V115.792C214.455 115.135 214.275 114.624 213.915 114.259C213.56 113.895 213.02 113.713 212.296 113.713C211.545 113.713 210.956 113.877 210.53 114.206C210.104 114.535 209.804 114.886 209.63 115.259L208.138 114.726C208.404 114.104 208.76 113.62 209.204 113.273C209.653 112.922 210.141 112.678 210.67 112.54C211.203 112.398 211.727 112.327 212.243 112.327C212.571 112.327 212.949 112.367 213.376 112.447C213.806 112.522 214.222 112.68 214.622 112.92C215.026 113.16 215.361 113.522 215.628 114.006C215.895 114.49 216.028 115.139 216.028 115.952V122.696H214.455V121.31H214.375C214.269 121.532 214.091 121.77 213.842 122.023C213.593 122.276 213.262 122.492 212.849 122.669C212.436 122.847 211.932 122.936 211.336 122.936ZM211.576 121.523C212.198 121.523 212.722 121.401 213.149 121.157C213.58 120.912 213.904 120.597 214.122 120.21C214.344 119.824 214.455 119.417 214.455 118.991V117.551C214.388 117.631 214.242 117.705 214.015 117.771C213.793 117.834 213.535 117.889 213.242 117.938C212.953 117.982 212.671 118.022 212.396 118.058C212.125 118.089 211.905 118.116 211.736 118.138C211.327 118.191 210.945 118.278 210.59 118.398C210.239 118.513 209.955 118.689 209.737 118.924C209.524 119.155 209.417 119.471 209.417 119.87C209.417 120.417 209.619 120.83 210.024 121.11C210.432 121.385 210.95 121.523 211.576 121.523ZM218.711 122.696V112.46H220.23V114.059H220.363C220.577 113.513 220.921 113.089 221.396 112.787C221.872 112.48 222.443 112.327 223.109 112.327C223.784 112.327 224.346 112.48 224.795 112.787C225.248 113.089 225.601 113.513 225.855 114.059H225.961C226.223 113.531 226.616 113.111 227.141 112.8C227.665 112.485 228.294 112.327 229.027 112.327C229.942 112.327 230.69 112.613 231.272 113.186C231.854 113.755 232.145 114.641 232.145 115.845V122.696H230.573V115.845C230.573 115.09 230.366 114.55 229.953 114.226C229.54 113.902 229.053 113.74 228.494 113.74C227.774 113.74 227.216 113.957 226.821 114.393C226.425 114.824 226.228 115.37 226.228 116.032V122.696H224.628V115.685C224.628 115.103 224.44 114.635 224.062 114.279C223.684 113.919 223.198 113.74 222.603 113.74C222.194 113.74 221.812 113.848 221.456 114.066C221.105 114.284 220.821 114.586 220.603 114.972C220.39 115.354 220.283 115.797 220.283 116.299V122.696H218.711ZM239.125 122.909C238.139 122.909 237.288 122.692 236.573 122.256C235.862 121.816 235.313 121.203 234.927 120.417C234.545 119.626 234.353 118.707 234.353 117.658C234.353 116.61 234.545 115.685 234.927 114.886C235.313 114.082 235.851 113.455 236.539 113.007C237.232 112.553 238.041 112.327 238.965 112.327C239.498 112.327 240.025 112.416 240.544 112.593C241.064 112.771 241.537 113.06 241.964 113.46C242.39 113.855 242.73 114.379 242.983 115.032C243.237 115.685 243.363 116.49 243.363 117.445V118.111H235.473V116.752H241.764C241.764 116.174 241.648 115.659 241.417 115.206C241.191 114.753 240.866 114.395 240.444 114.133C240.027 113.871 239.534 113.74 238.965 113.74C238.339 113.74 237.797 113.895 237.339 114.206C236.886 114.513 236.537 114.912 236.293 115.406C236.048 115.899 235.926 116.427 235.926 116.992V117.898C235.926 118.671 236.059 119.326 236.326 119.864C236.597 120.397 236.972 120.803 237.452 121.083C237.932 121.359 238.49 121.497 239.125 121.497C239.538 121.497 239.911 121.439 240.245 121.323C240.582 121.203 240.873 121.026 241.118 120.79C241.362 120.55 241.551 120.253 241.684 119.897L243.203 120.324C243.043 120.839 242.775 121.292 242.397 121.683C242.019 122.07 241.553 122.372 240.998 122.589C240.442 122.803 239.818 122.909 239.125 122.909ZM247.141 116.538V122.696H245.568V112.46H247.087V114.059H247.221C247.461 113.54 247.825 113.122 248.314 112.807C248.802 112.487 249.433 112.327 250.206 112.327C250.899 112.327 251.506 112.469 252.025 112.753C252.545 113.033 252.95 113.46 253.238 114.033C253.527 114.601 253.672 115.321 253.672 116.192V122.696H252.099V116.299C252.099 115.494 251.89 114.868 251.472 114.419C251.055 113.966 250.482 113.74 249.753 113.74C249.251 113.74 248.802 113.848 248.407 114.066C248.016 114.284 247.707 114.601 247.481 115.019C247.254 115.437 247.141 115.943 247.141 116.538ZM260.809 112.46V113.793H255.505V112.46H260.809ZM257.051 110.008H258.623V119.764C258.623 120.208 258.688 120.541 258.817 120.763C258.95 120.981 259.119 121.128 259.323 121.203C259.532 121.274 259.752 121.31 259.983 121.31C260.156 121.31 260.298 121.301 260.409 121.283C260.521 121.261 260.609 121.243 260.676 121.23L260.996 122.643C260.889 122.683 260.74 122.723 260.549 122.763C260.358 122.807 260.116 122.829 259.823 122.829C259.379 122.829 258.943 122.734 258.517 122.543C258.095 122.352 257.744 122.061 257.464 121.67C257.189 121.279 257.051 120.786 257.051 120.19V110.008ZM267.036 122.909C266.112 122.909 265.301 122.689 264.603 122.25C263.91 121.81 263.368 121.194 262.977 120.404C262.591 119.613 262.398 118.689 262.398 117.631C262.398 116.565 262.591 115.634 262.977 114.839C263.368 114.044 263.91 113.426 264.603 112.987C265.301 112.547 266.112 112.327 267.036 112.327C267.96 112.327 268.768 112.547 269.462 112.987C270.159 113.426 270.701 114.044 271.088 114.839C271.478 115.634 271.674 116.565 271.674 117.631C271.674 118.689 271.478 119.613 271.088 120.404C270.701 121.194 270.159 121.81 269.462 122.25C268.768 122.689 267.96 122.909 267.036 122.909ZM267.036 121.497C267.738 121.497 268.315 121.317 268.768 120.957C269.222 120.597 269.557 120.124 269.775 119.537C269.992 118.951 270.101 118.316 270.101 117.631C270.101 116.947 269.992 116.31 269.775 115.719C269.557 115.128 269.222 114.65 268.768 114.286C268.315 113.922 267.738 113.74 267.036 113.74C266.334 113.74 265.756 113.922 265.303 114.286C264.85 114.65 264.515 115.128 264.297 115.719C264.079 116.31 263.97 116.947 263.97 117.631C263.97 118.316 264.079 118.951 264.297 119.537C264.515 120.124 264.85 120.597 265.303 120.957C265.756 121.317 266.334 121.497 267.036 121.497ZM275.033 122.803C274.704 122.803 274.422 122.685 274.187 122.449C273.951 122.214 273.834 121.932 273.834 121.603C273.834 121.274 273.951 120.992 274.187 120.757C274.422 120.521 274.704 120.404 275.033 120.404C275.362 120.404 275.644 120.521 275.88 120.757C276.115 120.992 276.233 121.274 276.233 121.603C276.233 121.821 276.177 122.021 276.066 122.203C275.96 122.385 275.815 122.532 275.633 122.643C275.455 122.749 275.255 122.803 275.033 122.803ZM280.014 122.803C279.685 122.803 279.403 122.685 279.167 122.449C278.932 122.214 278.814 121.932 278.814 121.603C278.814 121.274 278.932 120.992 279.167 120.757C279.403 120.521 279.685 120.404 280.014 120.404C280.342 120.404 280.624 120.521 280.86 120.757C281.095 120.992 281.213 121.274 281.213 121.603C281.213 121.821 281.158 122.021 281.046 122.203C280.94 122.385 280.795 122.532 280.613 122.643C280.436 122.749 280.236 122.803 280.014 122.803ZM284.994 122.803C284.665 122.803 284.383 122.685 284.148 122.449C283.912 122.214 283.794 121.932 283.794 121.603C283.794 121.274 283.912 120.992 284.148 120.757C284.383 120.521 284.665 120.404 284.994 120.404C285.323 120.404 285.605 120.521 285.84 120.757C286.076 120.992 286.193 121.274 286.193 121.603C286.193 121.821 286.138 122.021 286.027 122.203C285.92 122.385 285.776 122.532 285.594 122.643C285.416 122.749 285.216 122.803 284.994 122.803Z" fill="white"/>
</svg>
