<svg width="50" height="50" viewBox="0 0 50 50" fill="none" xmlns="http://www.w3.org/2000/svg">
<circle cx="25" cy="25" r="25" fill="#535353"/>
<path d="M34.4082 33.6276C32.9803 31.1591 30.78 29.3891 28.2122 28.5501C29.4824 27.7939 30.4692 26.6417 31.0212 25.2705C31.5731 23.8992 31.6597 22.3847 31.2676 20.9594C30.8755 19.5342 30.0264 18.2771 28.8506 17.3812C27.6749 16.4852 26.2376 16 24.7594 16C23.2812 16 21.8439 16.4852 20.6682 17.3812C19.4925 18.2771 18.6433 19.5342 18.2512 20.9594C17.8591 22.3847 17.9457 23.8992 18.4976 25.2705C19.0496 26.6417 20.0364 27.7939 21.3066 28.5501C18.7388 29.3882 16.5385 31.1582 15.1107 33.6276C15.0583 33.7129 15.0236 33.8079 15.0085 33.9069C14.9935 34.006 14.9984 34.107 15.023 34.2041C15.0477 34.3011 15.0915 34.3923 15.1519 34.4722C15.2123 34.552 15.2881 34.619 15.3749 34.6691C15.4616 34.7192 15.5575 34.7514 15.6569 34.7638C15.7562 34.7763 15.8571 34.7687 15.9535 34.7415C16.0499 34.7143 16.1399 34.6681 16.2181 34.6056C16.2964 34.5431 16.3613 34.4656 16.4091 34.3776C18.1753 31.3251 21.2972 29.5026 24.7594 29.5026C28.2216 29.5026 31.3435 31.3251 33.1097 34.3776C33.1575 34.4656 33.2225 34.5431 33.3007 34.6056C33.379 34.6681 33.4689 34.7143 33.5653 34.7415C33.6617 34.7687 33.7626 34.7763 33.862 34.7638C33.9613 34.7514 34.0572 34.7192 34.1439 34.6691C34.2307 34.619 34.3065 34.552 34.3669 34.4722C34.4273 34.3923 34.4712 34.3011 34.4958 34.2041C34.5204 34.107 34.5254 34.006 34.5103 33.9069C34.4952 33.8079 34.4605 33.7129 34.4082 33.6276ZM19.5094 22.7526C19.5094 21.7142 19.8173 20.6992 20.3942 19.8358C20.9711 18.9724 21.791 18.2995 22.7503 17.9022C23.7096 17.5048 24.7652 17.4009 25.7836 17.6034C26.802 17.806 27.7375 18.306 28.4717 19.0402C29.2059 19.7745 29.706 20.7099 29.9085 21.7283C30.1111 22.7467 30.0071 23.8023 29.6098 24.7616C29.2124 25.721 28.5395 26.5409 27.6762 27.1178C26.8128 27.6946 25.7978 28.0026 24.7594 28.0026C23.3675 28.0011 22.033 27.4475 21.0487 26.4632C20.0645 25.479 19.5109 24.1445 19.5094 22.7526Z" fill="white"/>
</svg>
