<svg width="21" height="21" viewBox="0 0 21 21" fill="none" xmlns="http://www.w3.org/2000/svg">
<path d="M5.42172 17.0166L6.16872 17.4543C7.90184 18.4623 9.9426 18.8051 11.91 18.4187C13.8773 18.0323 15.6368 16.9431 16.8599 15.3544C18.083 13.7657 18.6861 11.7862 18.5566 9.78539C18.427 7.78462 17.5738 5.89938 16.156 4.48166C14.7383 3.06393 12.8531 2.21065 10.8523 2.08113C8.85153 1.9516 6.87201 2.55468 5.28332 3.77777C3.69464 5.00087 2.60541 6.76035 2.21899 8.72772C1.83257 10.6951 2.17539 12.7359 3.18343 14.469L3.61974 15.216L2.94434 17.6934L5.42172 17.018V17.0166ZM0.0049768 20.6368L1.40036 15.5091C0.139619 13.3427 -0.289508 10.7916 0.193115 8.33197C0.675737 5.87237 2.03711 3.67252 4.02302 2.14323C6.00892 0.613933 8.48357 -0.140246 10.9848 0.0215269C13.4861 0.1833 15.843 1.24996 17.6154 3.02233C19.3877 4.79469 20.4544 7.15158 20.6162 9.65285C20.7779 12.1541 20.0238 14.6288 18.4945 16.6147C16.9652 18.6006 14.7653 19.962 12.3057 20.4446C9.84613 20.9272 7.29495 20.4981 5.12859 19.2373L0.0049768 20.6368ZM6.59693 5.47529C6.73493 5.46516 6.87344 5.46381 7.01162 5.47124L7.17912 5.48745C7.34257 5.50636 7.52358 5.60632 7.58437 5.7441C7.89235 6.44247 8.19223 7.14489 8.47995 7.85001C8.54479 8.00671 8.50697 8.20798 8.3854 8.40384C8.30029 8.53622 8.20979 8.66455 8.11253 8.78747C7.99636 8.93606 7.74511 9.21163 7.74511 9.21163C7.74511 9.21163 7.6438 9.3332 7.68298 9.48449C7.69648 9.54258 7.74511 9.62633 7.78834 9.69657L7.84912 9.79518C8.11253 10.2355 8.46779 10.6827 8.9014 11.1028C9.02433 11.223 9.14455 11.3459 9.27558 11.4607C9.75899 11.8869 10.3059 12.2351 10.8965 12.4927L10.9006 12.4941C10.9884 12.5319 11.033 12.5535 11.1613 12.6076C11.2248 12.6346 11.291 12.6575 11.3585 12.6751C11.4277 12.6926 11.5006 12.6892 11.5679 12.6654C11.6352 12.6416 11.6939 12.5985 11.7368 12.5414C12.4837 11.6363 12.5526 11.5782 12.558 11.5782V11.5796C12.6101 11.5313 12.6718 11.4946 12.7391 11.472C12.8064 11.4494 12.8778 11.4414 12.9484 11.4486C13.0111 11.4513 13.0728 11.465 13.1308 11.4891C13.6792 11.7403 14.5762 12.1321 14.5762 12.1321L15.1759 12.4022C15.2772 12.4495 15.3691 12.5643 15.3718 12.6751C15.3758 12.7426 15.3826 12.8548 15.3583 13.0601C15.3286 13.3199 15.2636 13.5744 15.1651 13.8165C15.11 13.9309 15.037 14.0358 14.949 14.1272C14.8444 14.2366 14.73 14.3361 14.6072 14.4244C14.5651 14.4563 14.5223 14.4874 14.4789 14.5176C14.3506 14.5987 14.2182 14.6743 14.0831 14.7445C13.8176 14.8857 13.5243 14.9668 13.224 14.9823C13.0322 14.9917 12.8417 15.0066 12.6499 14.9958L12.0636 14.9066C10.5967 14.5207 9.24013 13.7977 8.10173 12.7953C7.86804 12.59 7.65326 12.3698 7.43173 12.1496C6.51317 11.2365 5.82021 10.2504 5.39876 9.31969C5.1832 8.86296 5.06673 8.36577 5.057 7.86082C5.05325 7.23492 5.2581 6.6256 5.6392 6.12908C5.71485 6.03182 5.78644 5.93051 5.90936 5.81434C5.9982 5.72164 6.10014 5.64245 6.21194 5.5793C6.33149 5.51909 6.46199 5.48371 6.59557 5.47529H6.59693Z" fill="white"/>
</svg>
