<svg width="38" height="26" viewBox="0 0 38 26" fill="none" xmlns="http://www.w3.org/2000/svg">
<path d="M30.4849 7.04C30.2092 5.97463 29.397 5.1356 28.3654 4.85086C26.4962 4.33337 19.0001 4.33337 19.0001 4.33337C19.0001 4.33337 11.504 4.33337 9.63467 4.85086C8.60315 5.1356 7.79075 5.97463 7.51525 7.04C7.0144 8.97103 7.0144 13.0001 7.0144 13.0001C7.0144 13.0001 7.0144 17.0289 7.51525 18.9602C7.79075 20.0257 8.60315 20.8645 9.63457 21.1495C11.5039 21.6668 19 21.6668 19 21.6668C19 21.6668 26.4961 21.6668 28.3653 21.1495C29.3969 20.8646 30.2091 20.0257 30.4848 18.9603C30.9857 17.0291 30.9857 13.0002 30.9857 13.0002C30.9857 13.0002 30.9857 8.97113 30.4848 7.04011" fill="#FF0000"/>
<path d="M16.5483 16.6581L22.8136 13.0003L16.5483 9.34204V16.6581Z" fill="white"/>
</svg>
